<mxfile host="app.diagrams.net" modified="2023-11-14T15:31:04.929Z" agent="Mozilla/5.0 (Macintosh; Intel Mac OS X 10_15_7) AppleWebKit/605.1.15 (KHTML, like Gecko) Version/17.0 Safari/605.1.15" version="22.1.1" etag="qO09cuEUMJzOvZoCIWE7" type="github">
  <diagram name="Page-1" id="_MBQLj_hoxUbC38v5J1F">
    <mxGraphModel>
      <root>
        <mxCell id="0" />
        <mxCell id="1" parent="0" />
      </root>
    </mxGraphModel>
  </diagram>
</mxfile>
